<?xml version="1.0" standalone="yes"?>
<svg xmlns="http://www.w3.org/2000/svg" width="900" height="900">
<path style="fill:#fdfefe; stroke:none;" d="M0 0L0 900L900 900L900 0L0 0z"/>
<path style="fill:#9ead9f; stroke:none;" d="M334.126 56.3456C328.697 58.0561 328.101 66.5672 326.791 71C322.11 86.8383 319.999 103.495 320 120C320.003 173.261 356.501 217.072 410 222.17C418.31 222.962 429.993 227.276 437.996 223.991C452.13 218.189 444.53 193.174 443 182C439.143 153.842 431.808 124.642 406 108.09C392.109 99.1815 374.917 97.1169 361.285 87.6551C352.534 81.5808 343.523 75.1682 339.264 65C338.316 62.7366 338.185 55.0667 334.126 56.3456z"/>
<path style="fill:#4dc671; stroke:none;" d="M442 215L441 215C436.625 226.767 408.765 219.143 399.778 215.833C397.416 214.963 388.069 211.991 392 210L392 209L388 209L388 208L391 208L389 205L392 204L388 185L389 185C392.002 187.549 393.105 183.636 393 181L392 183L391 183C387.871 169.729 390.447 160.248 390.367 147C390.332 141.317 388.076 135.776 388.25 130C388.445 123.523 386.853 116.647 392 112L391 107L396 108L395 111L396 112C409.266 107.485 417.327 125.221 426 132C412.132 105.671 384.768 103.592 361 90.3773C349.773 84.1353 340.781 73.7156 334 63C323.69 69.9916 324.667 92.9481 323.91 104C320.687 151.072 336.39 193.554 382 213.965C395.302 219.918 410.788 220.709 425 222.576C432.539 223.566 440.212 223.831 442 215z"/>
<path style="fill:#1bb1c3; stroke:none;" d="M391 107L392 112C385.886 115.642 388.28 123.12 388.123 129.286C387.955 135.923 390.238 142.399 390.051 149C389.696 161.534 386.497 170.504 391 183L392 183L393 181C392.954 183.516 391.919 186.866 389 185L388 185L392 204L389 205C389.942 207.288 390.563 207.658 388 208L388 209L392 209L392 210L389 210L390 213C400.655 213.374 412.875 218.969 424 220.286C428.494 220.818 434.791 222.321 438.721 219.258C445.187 214.22 441.821 200.845 441.17 194C438.949 170.664 437.044 147.71 422.555 128.039C417.049 120.565 406.258 107.156 396 112L395 111L396 108L391 107z"/>
<path style="fill:#4dc671; stroke:none;" d="M426 133L427 134L426 133M427 134L431 144L432 144L427 134M432.333 145.667L432.667 146.333L432.333 145.667M433 147L434 152L435 152L433 147M392 150L393 151L392 150M435 152L439 170L440 170L435 152z"/>
<path style="fill:#9ead9f; stroke:none;" d="M436 300L437 300C440.71 288.298 440.069 275.787 443.156 264C450.531 235.839 464.288 208.801 482.989 186.424C490.871 176.993 499.397 165.773 510 159.272C515.315 156.012 522.752 156.001 523.975 163.715C525.668 174.386 508.715 183.282 502.805 190.089C487.09 208.192 470.916 230.184 466 254C473.7 244.364 476.618 229.763 483.583 219.17C494.648 202.339 508.275 189.557 521.826 174.961C527.023 169.362 530.649 161.519 522.945 156.264C510.168 147.547 491.497 172.591 484.3 181C456.984 212.917 436.353 257.412 436 300z"/>
<path style="fill:#4dc671; stroke:none;" d="M633 441L632 441C610.059 487.09 567.086 522.147 528.911 554.396C518.172 563.467 506.623 572.914 495 580.615C489.703 584.124 481.809 586.532 480 593L473 592C473.134 595.748 469.988 595.472 467 595C467.812 591.375 467.96 588.162 464 587C463.985 583.543 460.387 576.676 465 576L466 425L465.999 383.001L466 367L465 366L460 368L462 360L460 352L464 352L462 344L462 343L462 342L467 328L460 327C460.605 317.035 460.973 311.859 471 308L469 301C476.697 299.401 477.101 291.6 481.823 286.439C488.477 279.167 497.51 273.745 506.17 269.219C543.662 249.626 588.402 250.479 618.92 282.289C629.684 293.51 635.148 306.425 642 320L643 320C626.692 260.255 560.314 239.843 508 265.374C498.386 270.066 489.054 275.02 481 282.173C474.372 288.059 467.186 297.772 458 299C458 266.827 469.109 235.248 488.384 209.286C493.588 202.276 499.157 194.499 505.289 188.286C513.225 180.245 521.708 175.348 525 164L524 164C509.594 185.747 480.722 201.324 474 228L472 228L470 223L472 224L475 218L468 216L469 211L472 212C472.173 206.661 474.191 202.565 479 200C479.015 193.114 484.266 188.918 488.576 184.039C497.789 173.61 508.356 155.169 524 162C516.145 146.078 497.306 169.433 491.039 176C468.233 199.899 450.594 231.891 442.899 264C440.808 272.725 440.341 282.114 438.996 291C438.626 293.449 438.04 298.821 434.865 299.369C431.776 299.902 427.259 293.492 424.999 291.746C414.536 283.664 404.443 275.581 393 268.911C363.154 251.512 321.534 250.159 291 266.8C268.805 278.897 256.239 303.009 248.806 326C244.367 339.73 243 351.574 243 366C243 376.799 242.419 388.392 244.669 399C259.764 470.183 319.51 516.441 371 562.167C387.669 576.97 405.433 590.731 423 604.424C429.037 609.13 437.145 619.13 445 620.299C454.472 621.708 471.065 603.925 478 598.371C507.599 574.666 539.126 551.831 566 525C589.332 501.706 623.459 473.892 633 441z"/>
<path style="fill:#1bb1c3; stroke:none;" d="M479 200C473.452 201.817 472.064 206.614 472 212L469 211L468 216L475 218L472 224L470 223L470 224L472 228L474 228C480.064 209.662 496.94 193.839 510.196 180.286C513.76 176.642 526.157 168.776 522.864 162.303C520.182 157.031 511.383 159.544 508.014 162.279C499.555 169.148 492.288 178.788 485.134 186.986C481.601 191.035 478.182 194.378 479 200z"/>
<path style="fill:#4dc671; stroke:none;" d="M440 171L442 214L443 214C444.489 202.208 444.656 182.071 440 171z"/>
<path style="fill:#1bb1c3; stroke:none;" d="M389 184L390 185L389 184z"/>
<path style="fill:#4dc671; stroke:none;" d="M392.333 206.667L392.667 207.333L392.333 206.667z"/>
<path style="fill:#1bb1c3; stroke:none;" d="M463 220C463.263 223.41 463.679 224.901 467 226L466 220L463 220z"/>
<path style="fill:#4dc671; stroke:none;" d="M464 224L465 225L464 224z"/>
<path style="fill:#1bb1c3; stroke:none;" d="M459 229L458 234L459 234L461 229L459 229M467 229L467 237C469.912 234.356 470.373 232.69 469 229L467 229M454 237L454 242C456.57 240.191 456.451 238.867 454 237z"/>
<path style="fill:#4dc671; stroke:none;" d="M455 239L456 240L455 239z"/>
<path style="fill:#1bb1c3; stroke:none;" d="M463 242L463 246L465 246L465 242L463 242z"/>
<path style="fill:#9ead9f; stroke:none;" d="M264 291C274.66 284.059 281.401 272.133 293 266.277C320.506 252.391 355.937 251.127 384 264.525C398.67 271.53 409.834 283.769 424 291C418.326 279.083 400.446 270.424 389 264.987C351.336 247.097 284.723 245.699 264 291M491 274L543 254.439L579 256C572.578 251.762 564.366 253 557 253C536.831 253 505.137 257.756 491 274M465.333 255.667L465.667 256.333L465.333 255.667z"/>
<path style="fill:#1bb1c3; stroke:none;" d="M469 301L471 308C460.202 310.843 460.258 317.16 460 327L467 328L462 342L462 343L462 344L464 352L460 352L462 360L460 368L465 366L466 367L465.981 382.004L466 422L465 576C459.948 576.631 463.84 583.369 464 587C467.262 588.958 467.372 591.386 467 595C470.222 595.579 472.551 595.606 473 592L480 593C483.447 584.799 496.005 581.769 502.741 576.33C522.718 560.2 542.565 543.615 562 526.711C601.556 492.305 643.618 444.548 648.83 390C654.145 334.378 634.343 266.585 571 256.59C561.178 255.04 551.774 254.685 542 256.888C522.609 261.26 503.917 267.638 488.015 280.039C480.694 285.747 477.491 298.028 469 301M460 256L459 261L460 261L460 256z"/>
<path style="fill:#9ead9f; stroke:none;" d="M579 256L579 257L601 265C596.038 259.318 586.408 256.323 579 256M464 257L458 293L459 293L461.209 273L464 257M601 265L601 266L613 273L601 265z"/>
<path style="fill:#1bb1c3; stroke:none;" d="M452 267L455 278C456.754 273.821 456.765 268.581 452 267M445 270L448 278L445 270z"/>
<path style="fill:#9ead9f; stroke:none;" d="M613 273L614 274L613 273M490 274L491 275L490 274M614 274L615 275L614 274M461 299L490 276C480.985 274.762 465.728 292.288 461 299M615 275L616 276L615 275M616 276L627 288L616 276z"/>
<path style="fill:#4dc671; stroke:none;" d="M484 287L485 288L484 287z"/>
<path style="fill:#9ead9f; stroke:none;" d="M627 288L628 289L627 288M628 289L631 295L632 295L628 289M263 291C249.958 308.938 243.925 329.341 241.83 351C240.35 366.309 239.778 382.717 242.326 398C253.277 463.705 310.199 513.206 358 554.131C377.988 571.245 398.653 587.44 419.004 604.095C425.337 609.278 436.736 622.597 445 623.549C450.086 624.135 455.252 618.267 459 615.556C470.735 607.067 486.181 597.523 495 586C483.315 590.495 470.946 602.316 461.285 610.289C457.199 613.661 450.945 620.814 445 619.846C438.554 618.797 431.904 610.746 427 606.804C413.965 596.325 401.031 585.781 387.961 575.346C331.074 529.927 258.17 473.149 244.465 397C241.094 378.275 240.108 352.112 246.344 334C249.473 324.914 252.138 315.538 256.579 307C259.003 302.343 263.628 296.397 263 291M424.667 291.333L425.333 291.667L424.667 291.333M426 292L427 293L426 292M427 293L428 294L427 293M428 294L429 295L428 294M429 295L430 296L429 295M632.333 295.667L632.667 296.333L632.333 295.667z"/>
<path style="fill:#1bb1c3; stroke:none;" d="M450 296L450 299L451 299L450 296z"/>
<path style="fill:#9ead9f; stroke:none;" d="M633 297L636 304L637 304L633 297M637 304L646 329L647 329C645.935 320.62 642.846 310.303 637 304z"/>
<path style="fill:#1bb1c3; stroke:none;" d="M463 305L464 306L463 305z"/>
<path style="fill:#4dc671; stroke:none;" d="M470 309L463 320C469.474 321.364 469.217 314.723 474 312L470 309M643.333 321.667L643.667 322.333L643.333 321.667M644 323C644.22 333.331 648.191 343.49 648.911 354C651.04 385.097 644.875 411.628 633 440L634 440C648.877 415.692 650 388.601 650 361C650 348.467 650.321 334.25 644 323z"/>
<path style="fill:#9ead9f; stroke:none;" d="M647.333 330.667L647.667 331.333L647.333 330.667M648 332L649 346L650 346L648 332M650 346L648 405L649 405C652.74 389.297 656.443 361.213 650 346M647 405L647 408L648 408L647 405M646 408L646 411L647 411L646 408M645 411L632 446L633 446C637.659 438.154 648.789 420.119 645 411M631 446L630 450L631 450L631 446M629 450L628 453L629 450M627 453L624 459L627 453M623 459L612 477L613 477C616.388 472.425 624.581 465.025 623 459M611 477L612 478L611 477M610 478L611 479L610 478M609 479L605 485L609 479M604 485L600 491L604 485M561 530C571.503 525.102 579.896 513.104 588 505C592.332 500.668 597.386 496.605 600 491L587 502.985L561 530M560 530L561 531L560 530M559 531L560 532L559 531M558 532L559 533L558 532M550 540L558 533L550 540M549 540L548 542L550 542L549 540M528 559L548 542C540.926 544.74 531.586 552.282 528 559M502 580L528 560C520.641 559.013 506.112 574.282 502 580M496 585L502 580L496 585z"/>
<path style="fill:#4dc671; stroke:none;" d="M468 584L468 586L470 586L470 584L468 584M480 584L481 585L480 584z"/>
<path style="fill:#9ead9f; stroke:none;" d="M495 585L496 586L495 585z"/>
<path style="fill:#1bb1c3; stroke:none;" d="M460 590L460 594L464 595L460 590M462 596L462 597L465 599L462 596M472 597L472 598L475 598L472 597M455 598L454 602L455 598z"/>
<path style="fill:#9ead9f; stroke:none;" d="M485 680C481.561 672.169 474.434 662.494 468.402 656.394C466.257 654.225 462.282 652.255 459.603 654.758C454.605 659.427 462.105 667.284 464.667 671C469.543 678.069 477.803 685.771 480.437 694C483.091 702.292 480.642 713.343 481.019 721.999C481.191 725.937 483.168 730.054 487.892 728.238C497.686 724.474 489.32 699.048 492.988 691C497.274 681.597 506.026 673.795 511.446 665C513.351 661.908 515.876 655.6 510.853 653.836C506.791 652.41 503.457 656.225 501.236 659.019C495.668 666.022 491.999 674.193 485 680M666.105 653.836C660.872 655.598 662.453 661.111 664.853 664.424C670.849 672.702 681.075 682.306 684.411 692C687.333 700.489 684.485 712.085 685.044 721C685.298 725.054 687.801 730.336 692.853 728.377C697.9 726.42 696 716.236 696 712C696 706.408 694.877 699.38 696.56 694C699.317 685.19 707.84 677.755 712.703 670.015C715.122 666.165 721.806 659.434 717.141 654.757C710.692 648.291 699.044 669.027 696.09 672.998C694.931 674.558 693.077 678.667 690.615 678.218C681.5 676.555 677.568 649.977 666.105 653.836M198.318 655.028C194.286 657.718 196 666.836 196 671L196 712C196 716.062 194.463 724.256 197.603 727.397C201.682 731.475 215.564 729 221 729C225.858 729 237.751 731.149 241.392 727.397C245.524 723.138 238.977 717.978 235 717.434C222.471 715.719 206.64 723.717 206.495 706C206.48 704.076 206.165 701.911 206.828 700.059C210.598 689.527 235.33 703.643 237.623 690.975C238.475 686.271 233.561 685.221 230 685.04C223.878 684.729 207.01 688.653 206.238 679.995C205.973 677.027 205.84 669.891 207.265 667.307C212.752 657.352 237.448 672.773 242.377 659.871C244.206 655.084 239.562 654.072 235.999 654.005C227.007 653.835 217.995 654 209 654C205.844 654 201.088 653.179 198.318 655.028M285 708L283 708C279.876 700.343 276.968 692.544 273.616 685C271.4 680.014 269.184 675.02 267.056 670C265.142 665.488 264.051 659.081 260.302 655.603C256.936 652.481 251.143 654.296 251.117 659.044C251.084 664.906 255.962 672.689 258.36 678C263.63 689.675 268.987 701.848 273.014 714C274.389 718.15 277.702 728.704 283.004 728.704C289.396 728.704 291.967 718.729 293.524 714C297.245 702.702 302.584 690.738 307.721 680C310.404 674.391 315.967 665.361 315.586 659.019C315.316 654.516 309.867 652.552 306.563 655.603C303.637 658.306 301.521 665.253 300.285 669C298.527 674.332 296.379 679.898 294.02 685C290.555 692.495 287.243 700.042 285 708M330.303 654.742C323.753 657.976 327 678.811 327 685L327 716C327.006 719.87 326.468 725.57 330.279 727.972C335.788 731.446 348.619 729 355 729C359.624 729 368.616 730.709 372.566 727.972C376.647 725.144 374.324 718.885 369.945 718.148C357.702 716.089 337.559 723.528 338.255 706C338.351 703.587 337.78 700.465 339.193 698.333C343.961 691.138 366.932 703.787 369.663 691.945C371.04 685.974 365.361 685.216 361 685.155C353.991 685.057 338.897 688.561 338.059 678.999C337.831 676.4 337.88 673.604 338.044 671.001C339.02 655.506 367.163 672.361 373.667 661.682C375.751 658.26 373.592 654.752 369.956 654.148C361.085 652.676 338.349 650.77 330.303 654.742M394.228 654.742C389.199 657.092 391 666.522 391 671L391 713C391 717.41 389.776 725.228 394.279 727.968C399.699 731.265 401.917 725.166 401.995 721C402.095 715.719 399.869 704.814 403.028 700.357C406.949 694.824 428.477 699.324 431.995 704.214C435.589 709.211 434.986 733.73 446.682 728.242C450.64 726.385 447.972 720.898 447.09 718C445.152 711.636 440.81 700.369 440.508 694C440.337 690.396 444.097 687.165 445.467 684C447.364 679.616 447.591 673.666 446.657 669C443.054 651.009 423.553 654 410 654C405.385 654 398.5 652.747 394.228 654.742M530.228 654.742C526.689 656.396 527.018 660.703 527.001 664C526.955 672.666 527 681.334 527 690C527 699.054 523.402 717.959 528.179 725.772C530.437 729.465 535.259 728.994 539 729C548.235 729.015 562.476 731.651 571 727.864C594.935 717.229 597.858 680.343 581.485 662.184C571.729 651.365 558.206 654 545 654C540.643 654 534.266 652.856 530.228 654.742M626.304 655.029C621.604 657.776 621.087 664.492 619 669C612.66 682.69 608.015 697.178 601.97 711C600.353 714.697 594.834 726.03 601.278 728.338C608.936 731.081 610.67 714.867 615.185 711.603C620.227 707.96 632.992 709.533 638.999 710.059C647.158 710.772 651.269 732.557 658.686 727.953C663.807 724.774 659.068 713.858 657.13 710C649.884 695.576 645.297 679.691 638.514 665C636.335 660.281 633.775 650.661 626.304 655.029z"/>
<path style="fill:#3e3e3e; stroke:none;" d="M236 689C227.442 686.471 214.823 691.365 207.148 686.821C201.737 683.617 201.999 665.051 208.059 662.603C218.512 658.382 230.718 665.298 241 659C234.825 652.694 217.436 655.999 209 656C206.081 656 201.067 655.12 198.897 657.603C196.185 660.708 198 669.102 198 673L198 711C198 714.731 196.577 722.302 199.028 725.397C202.852 730.225 224.061 727.003 230 727C232.195 726.999 238.53 727.92 239.079 724.726C240.13 718.61 227.154 720.128 224 720.05C219.308 719.934 212.425 721.362 208.059 719.536C202.384 717.161 202.621 702.967 204.603 698.059C209.049 687.052 230.067 700.305 236 689M283 712C279.444 704.382 275.731 696.889 272.77 689C270.903 684.027 268.933 678.778 266.626 674C264.169 668.912 262.884 662.925 259.482 658.319C257.83 656.081 253.885 655.574 253.542 659.148C253.088 663.892 258.075 671.67 259.97 676C264.857 687.165 269.694 698.596 274.053 710C275.481 713.735 278.393 725.379 283.076 726.079C287.13 726.685 290.294 716.892 291.388 714C296.741 699.844 303.714 686.252 308.795 672C309.827 669.105 317.283 657.257 310.907 656.466C306.285 655.893 303.392 666.668 302.205 670C298.103 681.521 292.717 704.602 283 712M331.318 657.028C326.198 660.444 329 677.449 329 683L329 714C329 717.568 328.005 723.461 331.434 725.821C336.392 729.234 348.173 727 354 727C358.148 727 368.037 728.81 371.353 725.976C376.332 721.72 365.88 720.14 363.715 720.131C348.913 720.071 336.6 724.541 336.661 706C336.671 702.985 335.764 699.966 337.321 697.145C340.525 691.339 353.443 694.029 359 693.999C361.578 693.986 367.041 694.517 367.534 690.881C368.1 686.714 362.346 687.786 360 687.914C354.161 688.233 338.42 690.79 337.009 682.956C336.491 680.078 337.009 676.922 336.869 674C336.112 658.255 349.054 662.001 361 662C363.906 662 370.163 663.035 371.744 659.741C373.755 655.549 365.99 656.004 364 656C356.13 655.984 337.929 652.616 331.318 657.028M445 727C447.859 716.576 440.806 704.587 437.859 695C436.622 690.978 441.054 687.269 442.811 684C445.302 679.366 445.9 672.973 444.005 668C438.274 652.956 421.892 656 409 656C404.91 656 396.885 654.501 394.179 658.434C391.986 661.62 393 667.339 393 671L393 700C393 704.633 390.497 724.973 396.999 726.079C400.686 726.706 399.996 720.022 400 718C400.012 711.966 397.275 698.347 405.019 696.318C414.553 693.82 430.379 695.207 435.08 705.004C438.98 713.13 435.273 722.41 445 727M512 656C498.326 657.032 497.935 679.666 486.029 681.369C481 682.088 471.75 664.759 468.845 661.019C467.47 659.25 463.488 654.338 461.071 657.623C458.337 661.339 465.464 668.276 467.421 671C477.818 685.479 483 693.07 483 711C483 714.087 481.301 725.062 485.26 726.168C490.569 727.652 489.996 716.686 490 714C490.011 706.918 488.094 696.521 491.164 690C496.507 678.648 511.035 668.933 512 656M532.228 656.742C525.605 659.837 530.416 678.805 529.715 685C528.78 693.26 530.283 701.687 529.794 710C529.525 714.581 527.923 720.471 530.988 724.566C533.216 727.543 537.728 726.995 541 727C550.256 727.016 562.454 729.08 571 725.015C592.913 714.591 595.351 677.827 577.961 662.301C569.147 654.432 559.027 656 548 656C543.385 656 536.499 654.746 532.228 656.742M601 727C609.557 724.466 607.537 713.533 614.21 708.603C619.049 705.029 641.448 704.898 645.621 709.268C650.933 714.83 650.214 724.098 658 727C659.747 720.081 656.21 714.295 653.806 708C649.182 695.895 643.806 684.112 639.194 672C637.726 668.144 635.156 656.636 629.971 656.636C624.097 656.636 621.6 667.739 619.925 672C614.938 684.692 609.562 697.235 604.77 710C602.497 716.055 599.549 720.321 601 727M665.661 657.047C662.263 659.915 671.54 669.637 673.266 672C677.407 677.667 683.832 684.433 686.262 691C689.017 698.445 686.806 709.132 687.015 717C687.074 719.218 688.04 728.366 692.415 725.824C694.829 724.422 693.999 719.28 694 717C694.003 709.606 692.935 701.288 694.228 694C695.745 685.446 705.691 675.963 710.728 669.004C712.305 666.825 719.952 658.748 714.694 656.662C711.196 655.275 708.73 659.738 707.116 662.005C704.437 665.766 696.039 682.077 690.997 681.369C684.762 680.493 677.686 665.674 673.961 661.019C672.371 659.033 668.627 654.544 665.661 657.047z"/>
<path style="fill:#9ead9f; stroke:none;" d="M539.148 661.832C532.894 664.154 536 685.359 536 691C536 697.695 533.149 712.967 537.028 718.566C540.287 723.27 562.982 720.928 567.996 719.121C585.495 712.816 585.664 682.816 576.487 670.004C570.468 661.6 548.756 658.265 539.148 661.832M402.434 663.028C398.084 666.022 398.388 685.715 401.858 689.397C406.803 694.642 426.919 691.163 431.957 687.362C454.11 670.646 416.839 653.113 402.434 663.028z"/>
<path style="fill:#fdfefe; stroke:none;" d="M539.603 665.066C535.565 668.015 538 683.379 538 688C538 695.35 535.333 709.062 538.603 715.681C540.031 718.571 544.341 717.895 547 717.845C554.25 717.708 564.955 718.77 570.981 714.276C583.768 704.741 584.318 678.545 571.942 668.419C567.29 664.613 561.593 665.23 556 664.75C552.177 664.422 542.822 662.716 539.603 665.066M403.603 666.028C400.582 668.421 400.626 684.777 403.603 687.213C408.402 691.139 427.411 688.089 431.891 684.431C437.206 680.093 437.76 670.626 431.695 666.653C427.411 663.846 407.771 662.727 403.603 666.028z"/>
<path style="fill:#9ead9f; stroke:none;" d="M628.248 670.176C624.98 671.783 623.316 679.778 622.201 683C620.805 687.037 616.702 692.593 617.423 696.941C618.393 702.795 634.575 702.315 638.768 700.397C645.579 697.28 635.442 680.658 633.593 676.001C632.772 673.931 631.655 668.5 628.248 670.176z"/>
<path style="fill:#fdfefe; stroke:none;" d="M629 671C626.034 677.05 624.308 683.736 621.806 690C621.01 691.992 618.722 695.209 620.136 697.382C621.601 699.634 637.298 699.283 638.342 696.678C640.25 691.916 632.053 674.874 629 671z"/>
<path style="fill:#9ead9f; stroke:none;" d="M268 798C274.282 799.939 287.751 795.958 292.397 800.603C299.224 807.43 285.211 826.906 296.019 828.747C298.277 829.131 300.716 828.835 303 828.884C305.606 828.941 308.411 829.227 310.941 828.427C317.278 826.423 311.159 818.583 311.015 814C310.559 799.423 310.582 784.577 311.015 770C311.143 765.712 316.588 757.194 311.756 754.514C307.32 752.053 293.159 750.85 291.449 757.109C289.235 765.216 302.287 784.689 286 784.995C283.335 785.046 280.665 784.997 278 785C275.302 785.003 271.682 785.654 269.148 784.548C257.904 779.638 274.358 758.68 266.851 754.318C262.798 751.963 247.884 751.132 246.488 757.144C245.491 761.442 249.622 765.673 249.945 770C250.807 781.535 250 793.431 250 805C250 809.512 245.335 824.906 247.619 827.258C250.63 830.359 267.944 830.863 269.249 825.852C270.044 822.801 266.974 819.851 266.313 817C264.913 810.96 265.92 803.708 268 798M348 816L349 798C354.259 799.252 382.493 799.563 372.257 787.434C364.992 778.825 345.552 793.094 347.059 775.005C348.157 761.84 369.724 773.019 376.566 770.303C380.352 768.801 380.065 757.306 377.258 755.028C370.047 749.175 347.888 752.997 339 753C335.351 753.001 329.594 752.142 327.746 756.228C325.959 760.181 328.583 764.978 328.907 769C329.727 779.21 329 789.757 329 800C329 805.872 325.033 822.105 328.032 826.566C330.248 829.864 335.637 828.806 339 828.884C348.289 829.099 357.684 828.378 367 828.269C369.802 828.237 374.19 829.45 376.682 827.933C380.592 825.552 380.453 813.061 374.981 812.542C370.847 812.15 366.625 816.023 362 815.982C357.28 815.939 352.726 815.81 348 816M420.005 753.668C414.045 755.38 412.739 762.051 410.361 767C403.84 780.573 399.802 795.33 393.486 809C391.677 812.917 383.808 823.434 387.608 827.258C390.443 830.11 402.448 829.812 405.678 827.682C410.29 824.641 403.985 818.199 410.062 815.484C414.077 813.69 431.18 812.913 434.587 815.643C438.377 818.678 434.831 823.137 437.046 826.566C439.32 830.089 453.297 829.926 456.851 828.393C463.58 825.491 453.542 814.074 451.998 810C446.121 794.496 438.983 779.536 433.241 764C431.239 758.585 426.707 751.743 420.005 753.668M470.02 753.573C467.795 754.243 465.918 755.545 465.846 758.055C465.568 767.786 468 778.825 468 789C468 797.886 468.76 807.156 467.895 816C467.602 818.993 464.516 823.673 466.133 826.486C467.986 829.711 473.923 828.996 477 829C486.381 829.011 495.659 828.345 505 828.043C508.325 827.936 512.669 829.348 515.721 827.643C520.194 825.145 520.183 815.723 515.772 813.194C509.329 809.502 494.282 822.828 488.179 813.682C486.002 810.42 487 804.72 487 801C487 790.031 486.559 778.958 487.039 768C487.207 764.183 489.195 758.893 486.821 755.434C484.151 751.542 473.976 752.38 470.02 753.573M522 753.444C515.932 754.505 510.915 760.391 513.746 766.852C517.308 774.98 530.475 764.25 534.782 771.318C536.342 773.878 535.279 778.1 535.59 781C536.748 791.802 536.282 803.196 535.412 814C535.158 817.156 531.84 823.782 533.312 826.436C535.546 830.466 547.216 829.489 550.981 828.772C558.62 827.317 554.468 819.156 554.09 814C553.32 803.497 550.286 781.805 554.603 772.228C558.397 763.814 570.72 775.386 574.258 766.941C575.897 763.027 575.036 755.704 570.775 753.742C566.71 751.871 560.377 753 556 753C545.008 753 532.842 751.547 522 753.444M585.059 753.573C577.539 755.936 584.197 763.345 584.856 768C586.84 782.017 585.194 797.836 584.996 812C584.938 816.198 579.332 825.091 583.323 827.821C586.667 830.109 601.67 830.458 603.914 826.566C605.541 823.745 602.593 820.57 601.723 818C600.396 814.077 599.953 805.971 601.603 802.099C603.649 797.302 625.908 796.953 628.821 801.318C633.621 808.51 621.173 827.277 631.019 828.697C633.591 829.068 636.396 828.68 639 828.754C641.649 828.829 645.218 829.499 647.681 828.255C651.941 826.103 646.029 816.028 646.001 812C645.903 797.758 645.223 783.217 646.043 769C646.296 764.621 651.992 757.318 646.847 754.434C642.724 752.122 629.13 751.081 626.747 756.279C623.868 762.557 631.891 772.898 629.682 780.941C628.109 786.671 606.348 787.392 602.603 783.512C594.523 775.14 612.512 754.742 597.999 753.109C596.026 752.887 593.983 752.992 592 753.001C589.721 753.011 587.262 752.88 585.059 753.573z"/>
<path style="fill:#3e3e3e; stroke:none;" d="M249 756L251.892 768L252 808L249.831 825.382L266 827C267.109 820.299 263.535 812.373 264.09 805C264.977 793.239 291.689 789.359 296.106 800.055C298.164 805.037 297.399 813.035 295.676 818C294.942 820.116 292.425 824.001 294.786 825.933C297.598 828.234 308.697 825.976 312 825C306.092 809.658 308.922 790.29 309.001 774C309.022 769.636 311.888 762.285 310.307 758.318C308.898 754.781 298.175 755.145 295.333 756.603C292.333 758.143 297.018 772.106 296.999 776C296.937 788.713 278.482 791.004 268.109 786.536C256.933 781.721 269.97 763.967 265.868 757.603C263.652 754.165 252.626 756 249 756M377 768C380.111 750.46 357.845 756 346 756C342.427 756 332.406 754.274 330.071 757.603C328.017 760.533 331.947 768.361 331.996 772C332.177 785.294 332.379 798.711 331.985 812C331.88 815.505 328.423 821.586 330.133 824.667C331.841 827.745 337.221 826.081 340 826.015C348.648 825.807 357.35 825.901 366 826.004C368.891 826.038 373.933 827.567 376.258 825.357C378.408 823.313 379.154 815.369 374.852 815.341C368.366 815.299 348.881 825.77 345.434 813.956C342.245 803.028 346.379 796.024 357 795.335C360.196 795.128 369.958 796.389 370.534 791.816C371.575 783.553 351.429 788.868 347.434 785.397C343.206 781.723 343.605 768.832 349.109 766.464C357.252 762.962 368.724 767.576 377 768M420.043 756.747C414.937 758.733 412.451 767.253 410.755 772C406.201 784.748 400.936 797.657 395.36 810C394.095 812.8 386.872 823.527 389.662 825.958C391.645 827.685 402.288 827.321 403.969 825.254C406.648 821.961 403.597 816.941 407.423 813.742C411.524 810.313 431.843 810.018 435.814 813.333C440.404 817.164 437.476 821.655 440.128 825.357C441.407 827.143 452.609 827.02 454.663 826.227C458.815 824.623 450.604 811.849 449.46 809C443.677 794.602 436.924 780.602 431.675 766C429.962 761.235 426.097 754.392 420.043 756.747M468 825C477.819 828.941 493.349 826.001 504 826C507.653 826 513.606 827.018 515.396 822.852C516.396 820.522 516.221 815.746 512.852 815.62C505.803 815.358 490.874 824.613 485.028 815.606C482.699 812.018 484 805.101 484 801C484 790.691 483.281 780.275 483.586 770C483.693 766.428 486.235 762.676 485.578 759.148C484.733 754.615 473.3 754.928 470.358 757.028C467.158 759.312 470 770.232 470 774C470.001 790.816 471.754 808.579 468 825M519.228 757.028C516.228 758.862 514.662 764.827 518.318 766.879C524.118 770.134 532.22 761.658 536.821 770.059C538.953 773.952 538 779.72 538 784C538 793.966 538.444 804.046 537.96 814C537.819 816.903 535.89 820.912 536.788 823.697C537.965 827.347 548.943 827.717 551.639 825.933C554.943 823.747 551.113 816.276 551.015 813C550.635 800.187 548.86 784.605 551.228 772.015C553.599 759.417 571.436 773.218 572.728 762.981C573.244 758.892 570.898 756.41 566.985 756.059C555.842 755.057 544.19 756 533 756C529.009 756 522.775 754.859 519.228 757.028M603 825L603 824C598.701 818.36 595.374 801.857 602.279 796.639C606.531 793.425 622.129 793.775 626.956 795.742C633.69 798.486 633.072 811.099 631.571 817C630.989 819.289 627.772 823.011 629.172 825.382C630.656 827.894 642.742 826.224 646 827L644 807L646 756C642.435 756 631.426 754.172 629.287 757.603C627.684 760.175 630.54 763.602 631.302 766C632.65 770.244 633.087 778.756 631.397 782.941C628.536 790.023 601.315 789.661 599.318 781.984C597.381 774.537 603.253 764.414 601.264 758.318C600.106 754.77 588.032 754.95 585.647 757.028C583.68 758.741 587 775.263 587 779C587 790.649 587.345 802.357 586.985 814C586.897 816.843 583.675 823.036 585.161 825.357C587.035 828.287 600.348 826.301 603 825z"/>
<path style="fill:#9ead9f; stroke:none;" d="M420 778C418.432 781.239 417.935 784.716 416.487 788C415.037 791.287 412.254 796.826 415.028 800.258C417.353 803.134 429.78 803.405 431.342 799.566C432.702 796.222 428.454 788.111 426.951 785.001C425.34 781.669 423.25 779.589 420 778z"/>
<path style="fill:#fdfefe; stroke:none;" d="M421 782L416 799L429 799L423 782L421 782z"/>
</svg>
